<svg width="100" height="100" viewBox="0 0 100 100" fill="none" xmlns="http://www.w3.org/2000/svg">
<rect x="16.25" y="15.25" width="67.5" height="68.5" rx="8.75" stroke="black" stroke-width="2.5"/>
<path d="M54.375 60.3447C54.9361 61.0039 54.9313 61.9747 54.3633 62.6279L42.9512 75.75H26C25.0335 75.75 24.25 74.9665 24.25 74V66.5283L43.6328 47.7266L54.375 60.3447ZM74 23.25C74.9665 23.25 75.75 24.0335 75.75 25V34.4004C75.7498 35.3667 74.9664 36.1504 74 36.1504H68.2803L68.2021 36.1602C63.8305 36.7167 60.9506 37.7532 59.2744 39.9043C57.6282 42.017 57.3896 44.9175 57.3896 48.4004V61.9004L59.3896 60.4004L59.3984 60.3936C60.852 59.2832 63.5817 57.2089 66.6016 56.1836C68.1579 55.6552 70.3017 55.2029 72.1016 55.6611C72.967 55.8815 73.7386 56.3079 74.3564 57.042C74.9714 57.7727 75.4995 58.8884 75.75 60.5967V74C75.75 74.9665 74.9665 75.75 74 75.75H46.2637L56.249 64.2686C57.6287 62.6822 57.6412 60.3245 56.2783 58.7236L45.4307 45.9824L68.8672 23.25H74ZM26 23.25H65.2754L43.8066 44.0742L26.4521 23.6895L24.5479 25.3105L42.0088 45.8193L24.25 63.0459V25C24.25 24.0335 25.0335 23.25 26 23.25Z" stroke="black" stroke-width="2.5"/>
<path d="M59.528 64.637C59.504 64.523 59.477 64.415 59.447 64.313C59.423 64.211 59.393 64.115 59.357 64.025L60.167 63.881C60.173 63.965 60.185 64.067 60.203 64.187C60.221 64.301 60.236 64.406 60.248 64.502C60.26 64.562 60.287 64.703 60.329 64.925C60.371 65.141 60.422 65.414 60.482 65.744C60.548 66.074 60.62 66.431 60.698 66.815C60.776 67.199 60.854 67.586 60.932 67.976C61.01 68.366 61.082 68.732 61.148 69.074C61.214 69.416 61.271 69.707 61.319 69.947C61.373 70.187 61.409 70.349 61.427 70.433C61.457 70.565 61.49 70.703 61.526 70.847C61.562 70.991 61.601 71.126 61.643 71.252L60.824 71.405C60.8 71.255 60.779 71.111 60.761 70.973C60.743 70.829 60.719 70.691 60.689 70.559C60.677 70.481 60.647 70.325 60.599 70.091C60.557 69.851 60.503 69.563 60.437 69.227C60.371 68.891 60.299 68.531 60.221 68.147C60.143 67.757 60.065 67.37 59.987 66.986C59.915 66.602 59.846 66.245 59.78 65.915C59.714 65.585 59.657 65.306 59.609 65.078C59.567 64.85 59.54 64.703 59.528 64.637ZM56.99 65.933C57.098 65.927 57.212 65.921 57.332 65.915C57.458 65.903 57.593 65.888 57.737 65.87C57.875 65.852 58.067 65.828 58.313 65.798C58.559 65.762 58.835 65.723 59.141 65.681C59.453 65.633 59.774 65.582 60.104 65.528C60.44 65.474 60.764 65.423 61.076 65.375C61.388 65.321 61.67 65.273 61.922 65.231C62.174 65.189 62.372 65.153 62.516 65.123C62.648 65.099 62.768 65.075 62.876 65.051C62.99 65.021 63.083 64.994 63.155 64.97L63.308 65.735C63.242 65.741 63.146 65.753 63.02 65.771C62.9 65.783 62.78 65.798 62.66 65.816C62.504 65.84 62.297 65.873 62.039 65.915C61.781 65.957 61.493 66.005 61.175 66.059C60.863 66.107 60.542 66.158 60.212 66.212C59.882 66.26 59.561 66.311 59.249 66.365C58.943 66.413 58.67 66.458 58.43 66.5C58.19 66.536 58.004 66.566 57.872 66.59C57.746 66.608 57.626 66.629 57.512 66.653C57.404 66.677 57.281 66.707 57.143 66.743L56.99 65.933ZM56.963 68.534C57.071 68.528 57.2 68.519 57.35 68.507C57.5 68.489 57.635 68.471 57.755 68.453C57.917 68.435 58.133 68.405 58.403 68.363C58.679 68.321 58.988 68.273 59.33 68.219C59.678 68.159 60.035 68.099 60.401 68.039C60.773 67.979 61.133 67.919 61.481 67.859C61.829 67.799 62.147 67.745 62.435 67.697C62.729 67.643 62.963 67.601 63.137 67.571C63.311 67.541 63.464 67.511 63.596 67.481C63.728 67.451 63.842 67.424 63.938 67.4L64.082 68.156C63.992 68.162 63.875 68.177 63.731 68.201C63.593 68.219 63.44 68.243 63.272 68.273C63.074 68.303 62.825 68.342 62.525 68.39C62.231 68.438 61.91 68.492 61.562 68.552C61.214 68.606 60.857 68.663 60.491 68.723C60.131 68.777 59.783 68.834 59.447 68.894C59.111 68.948 58.811 68.999 58.547 69.047C58.283 69.089 58.073 69.125 57.917 69.155C57.743 69.185 57.59 69.212 57.458 69.236C57.332 69.26 57.221 69.287 57.125 69.317L56.963 68.534ZM66.314 64.835C66.494 64.841 66.647 64.847 66.773 64.853C66.899 64.853 67.013 64.853 67.115 64.853C67.187 64.853 67.319 64.853 67.511 64.853C67.703 64.853 67.934 64.853 68.204 64.853C68.48 64.853 68.774 64.853 69.086 64.853C69.398 64.853 69.707 64.853 70.013 64.853C70.325 64.853 70.616 64.853 70.886 64.853C71.156 64.853 71.384 64.853 71.57 64.853C71.756 64.853 71.882 64.853 71.948 64.853C72.044 64.853 72.164 64.853 72.308 64.853C72.458 64.847 72.602 64.841 72.74 64.835C72.734 64.943 72.728 65.06 72.722 65.186C72.722 65.306 72.722 65.423 72.722 65.537C72.722 65.597 72.722 65.717 72.722 65.897C72.722 66.071 72.722 66.284 72.722 66.536C72.722 66.788 72.722 67.061 72.722 67.355C72.722 67.643 72.722 67.931 72.722 68.219C72.722 68.507 72.722 68.774 72.722 69.02C72.722 69.266 72.722 69.476 72.722 69.65C72.722 69.818 72.722 69.926 72.722 69.974C72.722 70.04 72.722 70.13 72.722 70.244C72.722 70.358 72.722 70.472 72.722 70.586C72.728 70.7 72.731 70.802 72.731 70.892C72.737 70.976 72.74 71.033 72.74 71.063H71.966C71.966 71.027 71.966 70.955 71.966 70.847C71.972 70.733 71.975 70.607 71.975 70.469C71.981 70.325 71.984 70.19 71.984 70.064C71.984 70.022 71.984 69.908 71.984 69.722C71.984 69.536 71.984 69.308 71.984 69.038C71.984 68.762 71.984 68.468 71.984 68.156C71.984 67.838 71.984 67.529 71.984 67.229C71.984 66.923 71.984 66.644 71.984 66.392C71.984 66.14 71.984 65.939 71.984 65.789C71.984 65.639 71.984 65.564 71.984 65.564H67.061C67.061 65.564 67.061 65.639 67.061 65.789C67.061 65.933 67.061 66.131 67.061 66.383C67.061 66.635 67.061 66.914 67.061 67.22C67.061 67.52 67.061 67.826 67.061 68.138C67.061 68.45 67.061 68.744 67.061 69.02C67.061 69.29 67.061 69.518 67.061 69.704C67.061 69.89 67.061 70.01 67.061 70.064C67.061 70.142 67.061 70.232 67.061 70.334C67.061 70.436 67.061 70.538 67.061 70.64C67.067 70.736 67.07 70.823 67.07 70.901C67.076 70.979 67.079 71.033 67.079 71.063H66.305C66.305 71.033 66.305 70.976 66.305 70.892C66.311 70.802 66.314 70.7 66.314 70.586C66.32 70.472 66.323 70.361 66.323 70.253C66.323 70.139 66.323 70.043 66.323 69.965C66.323 69.917 66.323 69.806 66.323 69.632C66.323 69.458 66.323 69.245 66.323 68.993C66.323 68.741 66.323 68.471 66.323 68.183C66.323 67.889 66.323 67.598 66.323 67.31C66.323 67.016 66.323 66.746 66.323 66.5C66.323 66.248 66.323 66.038 66.323 65.87C66.323 65.696 66.323 65.585 66.323 65.537C66.323 65.429 66.323 65.312 66.323 65.186C66.323 65.06 66.32 64.943 66.314 64.835ZM72.272 69.839V70.541H66.71V69.839H72.272Z" fill="black"/>
</svg>
